<svg preserveAspectRatio="none" overflow="visible" style="display: block;" width="36" height="36" viewBox="0 0 36 36" fill="none" xmlns="http://www.w3.org/2000/svg">
<g id="icon">
<path id="Icon_User" d="M24.7422 19.5713C25.7141 19.5795 26.4999 20.3325 26.5 21.2559V21.6689C26.5 25.7192 23.0685 28.9999 18.8506 29H17.6504C13.424 29 10 25.7111 10 21.6689V21.2559C10.0001 20.3244 10.7868 19.5713 11.7588 19.5713H24.7422ZM18.4111 7C20.6144 7.00014 22.4002 8.80872 22.4004 11.04V11.8965C22.4003 14.1279 20.6145 15.9364 18.4111 15.9365H18.0391C15.8356 15.9365 14.0489 14.128 14.0488 11.8965V11.04C14.049 8.80863 15.8357 7 18.0391 7H18.4111Z" fill="white" fill-opacity="0.8"/>
</g>
</svg>
